<?xml version="1.0" standalone="no"?>
<!DOCTYPE svg PUBLIC "-//W3C//DTD SVG 20010904//EN"
 "http://www.w3.org/TR/2001/REC-SVG-20010904/DTD/svg10.dtd">
<svg version="1.0" xmlns="http://www.w3.org/2000/svg"
 width="40px" height="40px" viewBox="0 0 736 736"
 preserveAspectRatio="xMidYMid meet">

<g transform="translate(0.000000,736.000000) scale(0.100000,-0.100000)"
fill="#000000" stroke="none">
<path d="M0 3680 l0 -3680 939 0 938 0 68 198 c211 616 480 1261 770 1842 100
201 197 410 227 490 11 30 27 62 34 71 15 16 19 97 6 114 -4 6 -61 30 -127 54
-313 114 -525 266 -697 501 -106 145 -168 279 -218 473 -53 203 -65 329 -64
662 0 272 2 309 22 398 59 263 178 502 359 719 263 316 680 541 1138 614 155
25 454 29 605 10 149 -20 335 -63 446 -105 178 -65 387 -189 505 -298 219
-203 440 -602 504 -910 43 -208 46 -601 7 -770 -53 -225 -154 -467 -262 -629
-194 -288 -499 -587 -649 -635 -90 -29 -94 -76 -18 -205 29 -49 101 -177 161
-284 60 -107 125 -220 146 -250 44 -65 90 -144 212 -360 83 -147 301 -590 396
-805 79 -178 258 -624 323 -802 l33 -93 778 0 778 0 0 3680 0 3680 -3680 0
-3680 0 0 -3680z m5621 2660 c4 -14 8 -72 8 -130 2 -148 16 -241 37 -257 10
-7 39 -13 64 -13 53 0 84 -18 79 -46 -3 -14 -14 -20 -44 -22 -108 -7 -117 -21
-116 -181 2 -113 0 -121 -20 -131 -35 -19 -48 5 -63 125 -16 129 -35 182 -68
189 -13 3 -57 7 -98 11 -78 6 -105 20 -94 48 8 23 45 31 109 24 52 -5 56 -4
97 33 l43 38 3 158 c1 88 5 165 7 172 8 23 49 9 56 -18z m464 -870 l11 -65 44
-5 c55 -7 70 -15 70 -40 0 -24 -15 -33 -65 -40 l-40 -5 -5 -99 c-4 -78 -9
-101 -22 -109 -30 -19 -46 8 -53 91 -9 114 -14 122 -77 122 -70 0 -95 8 -101
31 -8 28 18 42 91 48 l67 6 3 45 c4 80 10 92 40 88 25 -3 28 -8 37 -68z
m-4367 -2172 c8 -8 12 -63 12 -182 0 -167 0 -171 26 -208 l27 -38 89 0 c96 0
128 -10 128 -39 0 -26 -19 -31 -124 -31 -91 0 -93 0 -114 -30 -21 -28 -23 -40
-21 -180 0 -82 -2 -154 -6 -160 -10 -16 -43 -12 -54 9 -6 10 -13 78 -17 151
-6 119 -10 137 -32 172 l-26 38 -137 0 c-129 0 -139 1 -149 21 -23 42 0 49
151 49 127 0 141 2 157 20 14 17 19 54 27 211 8 150 13 192 25 199 20 13 24
12 38 -2z m399 -710 c6 -7 13 -25 17 -40 3 -15 15 -32 26 -38 26 -14 26 -41 0
-63 -11 -9 -20 -25 -20 -36 0 -43 -53 -35 -69 10 -6 19 -17 29 -29 29 -18 0
-32 18 -32 41 0 5 11 15 25 21 17 8 25 19 25 38 0 42 35 66 57 38z"/>
<path d="M4710 4388 c-19 -5 -48 -22 -63 -36 -61 -57 -73 -122 -33 -169 21
-25 31 -28 83 -28 45 0 66 5 95 25 92 62 95 169 6 204 -43 18 -40 18 -88 4z"/>
<path d="M2553 4211 c-51 -24 -78 -62 -78 -114 0 -31 7 -45 33 -68 90 -80 255
23 213 133 -22 58 -100 81 -168 49z"/>
<path d="M4345 3962 c-193 -188 -422 -287 -727 -313 -145 -12 -206 -8 -316 22
-98 26 -188 68 -287 134 -107 71 -148 73 -161 7 -5 -27 -2 -36 25 -61 87 -81
256 -167 406 -207 96 -25 108 -26 280 -21 230 7 370 38 545 120 210 98 434
303 400 366 -11 22 -41 41 -62 41 -7 0 -53 -40 -103 -88z"/>
</g>
</svg>
